<svg xmlns="http://www.w3.org/2000/svg" xmlns:xlink="http://www.w3.org/1999/xlink" width="500" zoomAndPan="magnify" viewBox="0 0 375 374.999991" height="500" preserveAspectRatio="xMidYMid meet" version="1.0"><defs><clipPath id="5fb84ea2eb"><path d="M 15.167969 57 L 360 57 L 360 317.992188 L 15.167969 317.992188 Z M 15.167969 57 " clip-rule="nonzero"/></clipPath></defs><rect x="-37.5" width="450" fill="#ffffff" y="-37.499999" height="449.999989" fill-opacity="1"/><rect x="-37.5" width="450" fill="#ffffff" y="-37.499999" height="449.999989" fill-opacity="1"/><g clip-path="url(#5fb84ea2eb)"><path fill="#00a0e9" d="M 31.875 266.523438 L 31.875 137.574219 L 49.09375 137.574219 L 49.09375 120.867188 L 31.644531 120.867188 C 22.582031 120.871094 15.167969 128.28125 15.167969 137.351562 L 15.167969 266.75 C 15.167969 275.8125 22.582031 283.230469 31.644531 283.230469 L 142.210938 283.230469 C 126.757812 276.652344 110.535156 271.949219 93.953125 269.242188 C 89.800781 268.566406 85.625 268.011719 81.4375 267.582031 C 78.046875 267.234375 74.648438 266.96875 71.242188 266.792969 C 68.621094 266.648438 65.996094 266.5625 63.378906 266.523438 L 55.816406 266.523438 L 49.09375 266.566406 L 49.09375 266.523438 Z M 233.378906 234.515625 C 213.617188 244.011719 194.859375 255.5 177.402344 268.808594 C 193.875 248.988281 212.671875 231.25 233.378906 215.980469 L 233.378906 83.734375 C 212.070312 89.890625 192.007812 99.953125 174.25 113.472656 C 190.933594 96.167969 211.113281 82.695312 233.378906 73.914062 C 237.667969 72.222656 242.03125 70.703125 246.464844 69.367188 L 246.464844 228.582031 C 242.058594 230.460938 237.695312 232.441406 233.378906 234.515625 Z M 297.003906 266.523438 L 297.003906 154.902344 C 297.441406 154.933594 297.886719 154.949219 298.328125 154.949219 L 313.707031 154.949219 L 313.707031 266.746094 C 313.707031 275.808594 306.289062 283.226562 297.226562 283.226562 L 186.664062 283.226562 C 202.117188 276.648438 218.339844 271.945312 234.925781 269.238281 C 239.078125 268.5625 243.25 268.007812 247.441406 267.578125 C 250.832031 267.230469 254.230469 266.964844 257.636719 266.789062 C 260.257812 266.644531 262.878906 266.558594 265.5 266.515625 L 273.0625 266.515625 L 279.785156 266.5625 L 279.785156 266.515625 L 297.003906 266.515625 Z M 257.128906 243.605469 L 257.128906 97.484375 L 270.214844 97.484375 L 270.214844 256.933594 C 265.84375 256.902344 261.480469 257.007812 257.128906 257.234375 C 253.566406 257.421875 250.007812 257.699219 246.464844 258.058594 C 242.085938 258.507812 237.722656 259.082031 233.378906 259.796875 C 213.574219 263.035156 194.242188 268.988281 175.945312 277.53125 C 193 263.988281 212.546875 254.082031 233.378906 248.304688 C 237.691406 247.113281 242.054688 246.09375 246.464844 245.257812 C 249.992188 244.59375 253.546875 244.039062 257.128906 243.605469 Z M 122.4375 301.628906 L 152.222656 301.628906 L 152.222656 297.210938 C 152.222656 294.980469 154.289062 293.160156 156.816406 293.160156 L 172.066406 293.160156 C 174.589844 293.160156 176.65625 294.984375 176.65625 297.210938 L 176.65625 301.628906 L 206.441406 301.628906 C 210.382812 301.628906 213.605469 304.472656 213.605469 307.953125 L 213.605469 311.609375 C 213.605469 315.089844 210.382812 317.933594 206.441406 317.933594 L 122.4375 317.933594 C 118.496094 317.933594 115.273438 315.089844 115.273438 311.609375 L 115.273438 307.953125 C 115.273438 304.472656 118.496094 301.628906 122.4375 301.628906 Z M 71.75 243.605469 L 71.75 97.484375 L 58.664062 97.484375 L 58.664062 256.933594 C 63.035156 256.902344 67.394531 257.007812 71.75 257.234375 C 75.3125 257.421875 78.867188 257.699219 82.410156 258.058594 C 86.792969 258.507812 91.152344 259.082031 95.496094 259.796875 C 115.304688 263.035156 134.636719 268.988281 152.929688 277.53125 C 135.875 263.988281 116.328125 254.082031 95.496094 248.304688 C 91.1875 247.113281 86.820312 246.09375 82.410156 245.257812 C 78.882812 244.59375 75.328125 244.039062 71.75 243.605469 Z M 318.460938 57.050781 L 330.144531 57.050781 C 331.058594 57.050781 331.796875 57.792969 331.796875 58.707031 L 331.796875 70.394531 C 331.796875 71.304688 331.058594 72.046875 330.144531 72.046875 L 318.460938 72.046875 C 317.550781 72.046875 316.804688 71.304688 316.804688 70.394531 L 316.804688 58.707031 C 316.804688 57.792969 317.550781 57.050781 318.460938 57.050781 Z M 298.328125 100.082031 L 327.21875 100.082031 C 327.671875 100.082031 328.066406 99.917969 328.386719 99.597656 L 334.359375 93.625 C 334.679688 93.304688 334.84375 92.910156 334.84375 92.453125 L 334.84375 76.742188 C 334.84375 75.835938 335.585938 75.089844 336.5 75.089844 L 358.179688 75.089844 C 359.09375 75.089844 359.835938 75.835938 359.835938 76.742188 L 359.835938 98.425781 C 359.835938 99.335938 359.09375 100.082031 358.179688 100.082031 L 342.46875 100.082031 C 342.011719 100.082031 341.621094 100.246094 341.300781 100.566406 L 335.328125 106.539062 C 335.007812 106.855469 334.84375 107.25 334.84375 107.707031 L 334.84375 136.59375 C 334.84375 137.503906 334.097656 138.25 333.1875 138.25 L 298.328125 138.25 C 297.417969 138.25 296.675781 137.503906 296.675781 136.59375 L 296.675781 101.734375 C 296.679688 100.820312 297.417969 100.082031 298.328125 100.082031 Z M 95.496094 234.515625 C 115.257812 244.011719 134.019531 255.5 151.476562 268.808594 C 135.003906 248.988281 116.199219 231.25 95.496094 215.980469 L 95.496094 83.734375 C 116.804688 89.890625 136.867188 99.953125 154.621094 113.472656 C 137.933594 96.167969 117.761719 82.695312 95.492188 73.914062 C 91.203125 72.222656 86.835938 70.703125 82.40625 69.367188 L 82.40625 228.582031 C 86.820312 230.460938 91.179688 232.441406 95.496094 234.515625 Z M 95.496094 234.515625 " fill-opacity="1" fill-rule="evenodd"/></g></svg>